<svg width="91" height="40" viewBox="0 0 91 40" fill="none" xmlns="http://www.w3.org/2000/svg">
<g clip-path="url(#clip0_128_934)">
<path d="M13.0427 31.0714C11.6887 31.3091 10.311 31.3804 8.88575 31.5703L4.53862 18.8381V32.1167C3.18468 32.2592 1.94949 32.4492 0.666748 32.6393V8.31494H4.27749L9.21826 22.1164V8.31494H13.0427V31.0714ZM20.5253 17.2228C21.9981 17.2228 24.2548 17.1515 25.6087 17.1515V20.9521C23.9221 20.9521 21.9506 20.9521 20.5253 21.0234V26.677C22.7583 26.5345 24.9912 26.3443 27.2477 26.273V29.9309L16.7245 30.7625V8.31494H27.2477V12.1156H20.5253V17.2228ZM41.3814 12.1157H37.4383V29.5988C36.1555 29.5988 34.8728 29.5988 33.6378 29.6462V12.1157H29.6946V8.31494H41.3816L41.3814 12.1157ZM47.5575 16.9616H52.7598V20.7621H47.5575V29.385H43.8278V8.31494H54.4463V12.1156H47.5575V16.9616ZM60.6223 26.0593C62.784 26.1067 64.9693 26.2733 67.0835 26.3918V30.1451C63.6867 29.9311 60.2898 29.7176 56.8217 29.6462V8.31494H60.6223V26.0593ZM70.2903 30.4064C71.5018 30.4777 72.7845 30.549 74.0197 30.6913V8.31494H70.2903V30.4064ZM90.6715 8.31494L85.8493 19.8833L90.6715 32.6393C89.2461 32.4492 87.8209 32.1879 86.3956 31.9503L83.664 24.9192L80.885 31.3804C79.507 31.1427 78.1768 31.0714 76.7993 30.8814L81.6926 19.7406L77.2742 8.31494H81.3597L83.854 14.7048L86.5145 8.31494H90.6715V8.31494Z" fill="#F5E2CA"/>
</g>
<defs>
<clipPath id="clip0_128_934">
<rect width="90" height="38.9189" fill="white" transform="translate(0.666748 0.207031)"/>
</clipPath>
</defs>
</svg>
