<svg width="100" height="39" viewBox="0 0 100 39" fill="none" xmlns="http://www.w3.org/2000/svg">
<path fill-rule="evenodd" clip-rule="evenodd" d="M77.806 25.6176C80.3833 25.6176 82.4796 23.5629 82.4796 21.0374C82.4796 18.5118 80.3833 16.4572 77.806 16.4572C75.2292 16.4572 73.1324 18.5118 73.1324 21.0374C73.1324 23.5629 75.2292 25.6176 77.806 25.6176ZM82.4796 9.65479H82.6065H84.694V27.8029H82.4796V25.9909C81.2019 27.1516 79.5542 27.7874 77.806 27.7874C74.0083 27.7874 70.9185 24.7593 70.9185 21.0374C70.9185 17.3152 74.0083 14.2873 77.806 14.2873C79.5542 14.2873 81.2019 14.923 82.4796 16.0838V9.65479ZM31.8878 25.5376C34.4648 25.5376 36.5614 23.483 36.5614 20.9574C36.5614 18.432 34.4648 16.3773 31.8878 16.3773C29.3107 16.3773 27.2141 18.432 27.2141 20.9574C27.2141 23.483 29.3107 25.5376 31.8878 25.5376ZM27.2141 16.0041C28.492 14.8433 30.14 14.2075 31.8878 14.2075C35.6856 14.2075 38.7755 17.2355 38.7755 20.9574C38.7755 24.6794 35.6856 27.7075 31.8878 27.7075C30.14 27.7075 28.492 27.0718 27.2141 25.9108V32.34H25V14.1918H27.2141V16.0041ZM43.0001 19.9035C43.4985 17.8524 45.3552 16.3796 47.4731 16.3796C49.5634 16.3796 51.3144 17.821 51.781 19.9035H43.0001ZM47.4731 14.1918C43.7322 14.1918 40.6888 17.2449 40.6888 20.9974C40.6888 24.75 43.7322 27.8029 47.4731 27.8029C49.5681 27.8029 51.4907 27.0162 52.7491 25.6444L53.4028 24.9314L53.487 24.8394L53.3954 24.7545L51.9741 23.4431L51.8824 23.3583L51.7977 23.4503L51.144 24.1635C50.3102 25.0725 48.938 25.6152 47.4731 25.6152C45.3552 25.6152 43.4986 24.1425 43.0001 22.0912H54.0815V20.9974C54.0815 17.1812 51.1787 14.1918 47.4731 14.1918ZM97.7856 20.9974C97.7856 23.5437 95.6893 25.6152 93.112 25.6152C90.5352 25.6152 88.4384 23.5437 88.4384 20.9974C88.4384 18.4511 90.5352 16.3796 93.112 16.3796C95.6893 16.3796 97.7856 18.4511 97.7856 20.9974ZM93.112 14.1918C89.3143 14.1918 86.2245 17.2448 86.2245 20.9974C86.2245 24.75 89.3143 27.8029 93.112 27.8029C96.9102 27.8029 100 24.75 100 20.9974C100 17.2448 96.9102 14.1918 93.112 14.1918ZM62.3083 14.1918C60.7699 14.1918 59.3042 14.7777 58.1505 15.8477V14.1918H55.9949V27.8029H58.1505V20.857C58.1505 18.3788 60.0157 16.3626 62.3083 16.3626C64.6014 16.3626 66.4671 18.3788 66.4671 20.857V27.8029H68.6222V20.857C68.6222 17.1818 65.7898 14.1918 62.3083 14.1918Z" fill="#F5E2CA"/>
<path fill-rule="evenodd" clip-rule="evenodd" d="M0 22.6178H10.4166V32.803L20.8333 22.6178V12.4326H10.4166L0 22.6178Z" fill="#F5E2CA"/>
</svg>
