<svg width="101" height="40" viewBox="0 0 101 40" fill="none" xmlns="http://www.w3.org/2000/svg">
<g clip-path="url(#clip0_128_913)">
<path d="M31.6764 26.9642L32.8898 24.1283C34.2182 25.1121 35.951 25.6328 37.6842 25.6328C38.9551 25.6328 39.7637 25.1411 39.7637 24.3888C39.7347 22.3052 32.1097 23.9257 32.0517 18.6872C32.0227 16.0248 34.3914 13.9702 37.7422 13.9702C39.7347 13.9702 41.7281 14.4623 43.1431 15.5911L42.0093 18.4875C40.7074 17.6503 39.0993 17.0667 37.5686 17.0667C36.5289 17.0667 35.8354 17.5584 35.8354 18.1955C35.8644 20.2501 43.5478 19.1213 43.6344 24.1283C43.6344 26.8486 41.3233 28.7587 38.0305 28.7587C35.6047 28.7587 33.3806 28.18 31.676 26.9642H31.6764ZM79.9889 23.1014C79.6826 23.6455 79.2371 24.0984 78.6981 24.4136C78.159 24.7288 77.5458 24.895 76.9214 24.895C74.9753 24.895 73.3978 23.3143 73.3978 21.3644C73.3978 19.4146 74.9753 17.8338 76.9214 17.8338C77.5458 17.8339 78.159 18 78.6981 18.3152C79.2371 18.6304 79.6826 19.0833 79.9889 19.6275L83.3621 17.7551C82.0986 15.4971 79.6885 13.9702 76.9214 13.9702C72.8456 13.9702 69.5416 17.2804 69.5416 21.3644C69.5416 25.4481 72.8456 28.7587 76.9214 28.7587C79.6885 28.7587 82.0986 27.2318 83.3621 24.9737L79.9889 23.1014ZM45.8233 28.4691H50.0403V7.81494H45.8237L45.8233 28.4691ZM85.4917 7.81494V28.4691H89.7087V22.2812L94.7057 28.4691H100.096L93.7413 21.118L99.6336 14.2585H94.4746L89.7087 19.9614V7.81494H85.4917ZM63.0322 14.2593V15.9383C62.3392 14.7805 60.635 13.9702 58.8442 13.9702C55.1471 13.9702 52.23 17.2406 52.23 21.3499C52.23 25.4592 55.1471 28.7587 58.8442 28.7587C60.635 28.7587 62.3392 27.9484 63.0322 26.7906V28.4691H67.2492V14.2593H63.0322ZM63.0322 23.1299C62.4258 24.1428 61.1549 24.8946 59.7398 24.8946C57.7933 24.8946 56.2158 23.3143 56.2158 21.3644C56.2158 19.4146 57.7933 17.8338 59.7398 17.8338C61.1549 17.8338 62.4258 18.6151 63.0322 19.6565V23.1299Z" fill="#F5E2CA"/>
<path d="M9.40639 7.3584C8.0398 7.3584 6.93211 8.46857 6.93211 9.83765C6.93178 10.1629 6.99552 10.485 7.11969 10.7857C7.24386 11.0863 7.42602 11.3595 7.65578 11.5897C7.88553 11.8199 8.15839 12.0026 8.45876 12.1274C8.75913 12.2522 9.08113 12.3166 9.40639 12.3169H11.8811V9.83765C11.8816 9.18073 11.6212 8.5505 11.1571 8.08556C10.6931 7.62062 10.0633 7.35906 9.40639 7.3584V7.3584ZM9.40639 13.9697H2.8079C1.44131 13.9697 0.333618 15.0799 0.333618 16.4494C0.333618 17.8185 1.44131 18.9286 2.8079 18.9286H9.4068C10.773 18.9286 11.8811 17.8185 11.8811 16.4494C11.8811 15.0799 10.773 13.9697 9.40639 13.9697" fill="#F5E2CA"/>
<path d="M25.0781 16.4494C25.0781 15.0799 23.97 13.9697 22.6034 13.9697C21.2368 13.9697 20.1291 15.0799 20.1291 16.4494V18.9286H22.6034C23.2603 18.928 23.8901 18.6664 24.3542 18.2015C24.8182 17.7365 25.0787 17.1063 25.0781 16.4494V16.4494ZM18.4796 16.4494V9.83765C18.4802 9.18073 18.2198 8.5505 17.7557 8.08556C17.2916 7.62062 16.6618 7.35906 16.0049 7.3584C14.6383 7.3584 13.5306 8.46857 13.5306 9.83765V16.449C13.5306 17.8189 14.6383 18.9291 16.0049 18.9291C16.6618 18.9284 17.2916 18.6668 17.7557 18.2019C18.2198 17.737 18.4802 17.1067 18.4796 16.4498" fill="#F5E2CA"/>
<path d="M16.0049 32.1518C16.6618 32.1511 17.2916 31.8896 17.7557 31.4246C18.2198 30.9597 18.4802 30.3295 18.4796 29.6725C18.4802 29.0156 18.2198 28.3854 17.7557 27.9204C17.2916 27.4555 16.6618 27.1939 16.0049 27.1933H13.5306V29.6725C13.5306 31.0416 14.6383 32.1518 16.0049 32.1518ZM16.0049 25.5405H22.6038C23.97 25.5405 25.0781 24.4303 25.0781 23.0608C25.0787 22.4039 24.8182 21.7736 24.3542 21.3087C23.8901 20.8438 23.2603 20.5822 22.6034 20.5815H16.0049C14.6383 20.5815 13.5306 21.6917 13.5306 23.0608C13.5303 23.386 13.5941 23.7082 13.7182 24.0088C13.8424 24.3094 14.0246 24.5826 14.2543 24.8129C14.4841 25.0431 14.7569 25.2258 15.0573 25.3506C15.3577 25.4753 15.6797 25.5397 16.0049 25.54" fill="#F5E2CA"/>
<path d="M0.333375 23.0608C0.333049 23.386 0.396789 23.7082 0.520956 24.0088C0.645124 24.3094 0.827287 24.5826 1.05704 24.8129C1.2868 25.0431 1.55966 25.2258 1.86003 25.3506C2.1604 25.4753 2.4824 25.5397 2.80765 25.54C3.46457 25.5394 4.09433 25.2778 4.55841 24.8129C5.02249 24.3479 5.2829 23.7177 5.28235 23.0608V20.5815H2.80765C1.44106 20.5815 0.333375 21.6917 0.333375 23.0608V23.0608ZM6.93187 23.0608V29.6721C6.93187 31.0416 8.03955 32.1518 9.40614 32.1518C10.0631 32.1511 10.6928 31.8896 11.1569 31.4246C11.621 30.9597 11.8814 30.3295 11.8808 29.6725V23.0608C11.8812 22.7355 11.8174 22.4133 11.6932 22.1127C11.569 21.812 11.3868 21.5388 11.157 21.3086C10.9272 21.0784 10.6543 20.8957 10.3539 20.7709C10.0535 20.6462 9.73143 20.5818 9.40614 20.5815C8.03955 20.5815 6.93187 21.6917 6.93187 23.0608Z" fill="#F5E2CA"/>
</g>
<defs>
<clipPath id="clip0_128_913">
<rect width="100" height="39.6694" fill="white" transform="translate(0.333374 0.165527)"/>
</clipPath>
</defs>
</svg>
