<svg width="101" height="44" viewBox="0 0 101 44" fill="none" xmlns="http://www.w3.org/2000/svg">
<g clip-path="url(#clip0_128_927)">
<path d="M28.1145 28.2141C25.322 28.2141 23.4734 26.0988 22.9577 25.2794C23.6194 20.0958 25.5556 18.4569 28.1145 18.4569C30.6443 18.4569 32.6097 20.4389 32.6097 23.3355C32.6097 26.2322 30.6443 28.2141 28.1145 28.2141ZM28.1145 15.2744C23.561 15.2744 21.0118 18.1806 20.282 21.1726C19.455 19.648 18.842 17.6089 18.3653 15.7127H12.0701V23.3832C12.0701 26.1655 10.776 28.2237 8.24626 28.2237C5.71651 28.2237 4.26678 26.1655 4.26678 23.3832L4.29596 15.7127H0.666748V23.3832C0.666748 25.6224 1.40621 27.652 2.75865 29.1003C4.15002 30.5963 6.04732 31.3776 8.24626 31.3776C12.6247 31.3776 15.6799 28.0903 15.6799 23.3832V18.2283C16.1371 19.9243 17.2269 23.1831 19.309 26.0417L17.3631 36.8946H21.0507L22.335 29.2051C22.7534 29.5481 23.201 29.853 23.6777 30.1294C24.9134 30.8917 26.3242 31.3205 27.7837 31.368C27.7837 31.368 28.0074 31.3776 28.1242 31.3776C32.6389 31.3776 36.2291 27.9569 36.2291 23.3355C36.2291 18.7142 32.6291 15.2744 28.1145 15.2744Z" fill="#F5E2CA"/>
<path d="M80.2566 17.3526V15.7138H76.6956V30.8926H80.3053V24.9469C80.3053 21.2879 80.6458 18.6581 85.6566 19.0011V15.5327C83.3215 15.3612 81.502 15.8376 80.2566 17.3526Z" fill="#F5E2CA"/>
<path d="M55.1937 15.7139L52.5764 26.3286L49.7839 15.7139H45.1915L42.3893 26.3286L39.7817 15.7139H36.1233L40.132 30.9024H44.4715L47.4877 20.116L50.4748 30.9024H54.8143L59.0565 15.7139H55.1937Z" fill="#F5E2CA"/>
<path d="M67.0057 28.2237C64.4371 28.2237 62.5106 26.2418 62.5106 23.3355C62.5106 20.4293 64.4469 18.4569 67.0057 18.4569C69.5356 18.4569 71.501 20.4389 71.501 23.3355C71.501 26.2321 69.5356 28.2237 67.0057 28.2237ZM67.0057 15.2744C62.4619 15.2744 58.9009 18.7237 58.9009 23.3355C58.9009 27.9473 62.4619 31.368 67.0057 31.368C71.5204 31.368 75.1107 27.9473 75.1107 23.3355C75.1107 18.7237 71.5302 15.2744 67.0057 15.2744Z" fill="#F5E2CA"/>
<path d="M90.8335 23.4313H91.6703L96.7103 30.9016H100.787L94.9881 22.6213C97.8001 21.5446 99.6876 18.7337 99.6876 15.7132H96.0875C96.0875 18.991 93.4508 20.2297 90.8335 20.2297V9.71973H87.214V30.9016H90.8237L90.8335 23.4313Z" fill="#F5E2CA"/>
</g>
<defs>
<clipPath id="clip0_128_927">
<rect width="100" height="42.1053" fill="white" transform="translate(0.666748 0.947754)"/>
</clipPath>
</defs>
</svg>
