<svg width="101" height="32" viewBox="0 0 101 32" fill="none" xmlns="http://www.w3.org/2000/svg">
<path d="M53.0369 7.9036C53.0369 9.02822 52.1309 9.93416 51.0063 9.93416C49.8817 9.93416 48.9758 9.02822 48.9758 7.9036C48.9758 6.77898 49.8505 5.87303 51.0063 5.87303C52.1622 5.90427 53.0369 6.81022 53.0369 7.9036ZM44.6647 11.996C44.6647 12.1834 44.6647 12.4958 44.6647 12.4958C44.6647 12.4958 43.6963 11.2462 41.6345 11.2462C38.2294 11.2462 35.574 13.8391 35.574 17.4316C35.574 20.9929 38.1982 23.617 41.6345 23.617C43.7275 23.617 44.6647 22.3362 44.6647 22.3362V22.8673C44.6647 23.1172 44.8522 23.3046 45.1021 23.3046H47.6325V11.5586C47.6325 11.5586 45.3207 11.5586 45.1021 11.5586C44.8522 11.5586 44.6647 11.7773 44.6647 11.996ZM44.6647 19.5247C44.1961 20.2119 43.2589 20.8055 42.1343 20.8055C40.135 20.8055 38.6043 19.5559 38.6043 17.4316C38.6043 15.3073 40.135 14.0578 42.1343 14.0578C43.2277 14.0578 44.2274 14.6826 44.6647 15.3386V19.5247ZM49.5068 11.5586H52.5058V23.3046H49.5068V11.5586ZM94.3042 11.2462C92.2424 11.2462 91.2739 12.4958 91.2739 12.4958V5.90427H88.275V23.3046C88.275 23.3046 90.5867 23.3046 90.8054 23.3046C91.0553 23.3046 91.2427 23.086 91.2427 22.8673V22.3362C91.2427 22.3362 92.2111 23.617 94.2729 23.617C97.678 23.617 100.333 20.9929 100.333 17.4316C100.333 13.8703 97.678 11.2462 94.3042 11.2462ZM93.8043 20.7742C92.6485 20.7742 91.7425 20.1807 91.2739 19.4934V15.3073C91.7425 14.6826 92.7422 14.0265 93.8043 14.0265C95.8037 14.0265 97.3344 15.2761 97.3344 17.4004C97.3344 19.5247 95.8037 20.7742 93.8043 20.7742ZM86.713 16.3382V23.3359H83.714V16.6819C83.714 14.745 83.0892 13.964 81.4023 13.964C80.4963 13.964 79.5592 14.4326 78.9656 15.1199V23.3046H75.9666V11.5586H78.3408C78.5907 11.5586 78.7782 11.7773 78.7782 11.996V12.4958C79.6529 11.5898 80.8087 11.2462 81.9646 11.2462C83.2766 11.2462 84.37 11.6211 85.2447 12.3708C86.3069 13.2455 86.713 14.3702 86.713 16.3382ZM68.6878 11.2462C66.626 11.2462 65.6576 12.4958 65.6576 12.4958V5.90427H62.6586V23.3046C62.6586 23.3046 64.9703 23.3046 65.189 23.3046C65.4389 23.3046 65.6264 23.086 65.6264 22.8673V22.3362C65.6264 22.3362 66.5948 23.617 68.6566 23.617C72.0617 23.617 74.717 20.9929 74.717 17.4316C74.7483 13.8703 72.0929 11.2462 68.6878 11.2462ZM68.188 20.7742C67.0321 20.7742 66.1262 20.1807 65.6576 19.4934V15.3073C66.1262 14.6826 67.1259 14.0265 68.188 14.0265C70.1873 14.0265 71.7181 15.2761 71.7181 17.4004C71.7181 19.5247 70.1873 20.7742 68.188 20.7742ZM60.0658 11.2462C60.9717 11.2462 61.4403 11.4024 61.4403 11.4024V14.1827C61.4403 14.1827 58.9411 13.3393 57.3792 15.1199V23.3359H54.3802V11.5586C54.3802 11.5586 56.6919 11.5586 56.9106 11.5586C57.1605 11.5586 57.3479 11.7773 57.3479 11.996V12.4958C57.9102 11.8398 59.1286 11.2462 60.0658 11.2462ZM28.92 22.2425C28.7639 21.8676 28.6077 21.4615 28.4515 21.1179C28.2015 20.5556 27.9516 20.0245 27.733 19.5247L27.7017 19.4934C25.5462 14.8075 23.2345 10.0591 20.7978 5.3732L20.7041 5.18577C20.4542 4.71718 20.2043 4.21734 19.9543 3.71751C19.6419 3.1552 19.3295 2.56165 18.8297 1.99934C17.8301 0.749767 16.393 0.0625 14.8623 0.0625C13.3003 0.0625 11.8946 0.749767 10.8637 1.93687C10.3951 2.49918 10.0514 3.09272 9.73904 3.65503C9.48913 4.15487 9.23921 4.6547 8.9893 5.12329L8.89558 5.31072C6.49014 9.99664 4.14719 14.745 1.99167 19.4309L1.96043 19.4934C1.74175 19.9933 1.49184 20.5243 1.24192 21.0866C1.08572 21.4303 0.929526 21.8051 0.773329 22.2113C0.367217 23.3671 0.242259 24.4605 0.398456 25.5851C0.74209 27.9281 2.30406 29.8962 4.45958 30.7709C5.27181 31.1145 6.11527 31.2707 6.98997 31.2707C7.23989 31.2707 7.55228 31.2394 7.8022 31.2082C8.8331 31.0833 9.89524 30.7396 10.9261 30.1461C12.207 29.4276 13.4253 28.3967 14.7998 26.8972C16.1744 28.3967 17.4239 29.4276 18.6735 30.1461C19.7044 30.7396 20.7666 31.0833 21.7975 31.2082C22.0474 31.2394 22.3598 31.2707 22.6097 31.2707C23.4844 31.2707 24.3591 31.1145 25.1401 30.7709C27.3268 29.8962 28.8576 27.8968 29.2012 25.5851C29.4511 24.4917 29.3262 23.3984 28.92 22.2425ZM14.8311 23.8669C13.1441 21.7427 12.0508 19.7433 11.6759 18.0564C11.5197 17.3379 11.4885 16.7131 11.5822 16.1508C11.6446 15.651 11.8321 15.2136 12.082 14.8387C12.6755 13.9953 13.6752 13.4642 14.8311 13.4642C15.9869 13.4642 17.0178 13.964 17.5801 14.8387C17.8301 15.2136 18.0175 15.651 18.08 16.1508C18.1737 16.7131 18.1424 17.3691 17.9863 18.0564C17.6114 19.7121 16.518 21.7114 14.8311 23.8669ZM27.2956 25.3352C27.0769 26.9596 25.9835 28.3654 24.4528 28.9902C23.7031 29.3026 22.8908 29.3963 22.0786 29.3026C21.2976 29.2089 20.5166 28.959 19.7044 28.4904C18.5798 27.8656 17.4552 26.8972 16.1431 25.4602C18.2049 22.9298 19.4545 20.618 19.9231 18.5562C20.1418 17.5878 20.173 16.7131 20.0793 15.9009C19.9543 15.1199 19.6732 14.4014 19.2358 13.7766C18.2674 12.3708 16.643 11.5586 14.8311 11.5586C13.0192 11.5586 11.3947 12.4021 10.4263 13.7766C9.98896 14.4014 9.7078 15.1199 9.58285 15.9009C9.45789 16.7131 9.48913 17.6191 9.73904 18.5562C10.2076 20.618 11.4885 22.961 13.519 25.4914C12.2382 26.9284 11.0823 27.8968 9.95772 28.5216C9.14549 28.9902 8.36451 29.2401 7.58352 29.3338C6.74006 29.4276 5.92783 29.3026 5.20933 29.0215C3.6786 28.3967 2.58522 26.9909 2.36654 25.3664C2.27282 24.5855 2.3353 23.8045 2.64769 22.9298C2.74141 22.6174 2.89761 22.305 3.05381 21.9301C3.27248 21.4303 3.5224 20.8992 3.77231 20.3681L3.80355 20.3057C5.95907 15.651 8.27079 10.9026 10.6762 6.27915L10.7699 6.09171C11.0199 5.62312 11.2698 5.12329 11.5197 4.6547C11.7696 4.15487 12.0508 3.68627 12.3944 3.28016C13.0504 2.53041 13.9251 2.1243 14.8935 2.1243C15.862 2.1243 16.7367 2.53041 17.3927 3.28016C17.7363 3.68627 18.0175 4.15487 18.2674 4.6547C18.5173 5.12329 18.7672 5.62312 19.0172 6.09171L19.1109 6.27915C21.4851 10.9338 23.7968 15.6822 25.9523 20.3369V20.3681C26.2022 20.868 26.4209 21.4303 26.6708 21.9301C26.827 22.305 26.9832 22.6174 27.0769 22.9298C27.3268 23.742 27.4206 24.523 27.2956 25.3352Z" fill="#F5E2CA"/>
</svg>
