<svg width="110" height="20" viewBox="0 0 110 20" fill="none" xmlns="http://www.w3.org/2000/svg">
<path d="M108.868 6.43245C108.868 6.01073 108.571 5.72959 108.084 5.72959L107.126 5.74716L107.143 7.89088H107.666V7.15288H107.979L108.432 7.89088H109.042L108.502 7.06502C108.613 7.00248 108.706 6.91073 108.771 6.79941C108.835 6.68809 108.869 6.56132 108.868 6.43245ZM107.979 6.71359H107.648V6.16887H108.031C108.1 6.16125 108.17 6.18073 108.225 6.22327C108.28 6.2658 108.317 6.32813 108.328 6.39731V6.41488C108.326 6.45831 108.316 6.50098 108.297 6.54014C108.278 6.57929 108.252 6.61406 108.219 6.64221C108.186 6.67035 108.148 6.69125 108.107 6.70354C108.065 6.71584 108.022 6.71926 107.979 6.71359ZM30.7093 16.3428C29.821 16.3428 29.2113 15.6399 29.2113 14.6032V9.87646H32.8693V6.53788H29.22L29.1852 2.7073H25.144L25.1789 15.4642C25.1789 18.0472 26.8859 19.8043 29.3942 19.8043C30.7181 19.8043 31.9722 19.6111 32.9651 19.1542V15.9035C32.26 16.2335 31.4855 16.3844 30.7093 16.3428ZM40.3594 6.32702C36.5969 6.32702 33.7054 9.27903 33.7054 13.1975C33.7054 17.0808 36.5969 19.7868 40.5858 19.7868C42.8328 19.7868 44.9405 18.9785 46.2295 17.3092L43.129 15.8859C42.5019 16.4658 41.5438 16.6942 40.6903 16.6942C39.2968 16.6942 37.9033 15.9738 37.7117 14.4978H46.9611C47.1001 13.9703 47.1704 13.4269 47.1701 12.8812C47.1701 8.85731 44.2612 6.32702 40.3681 6.32702H40.3594ZM37.7117 11.9147C37.8336 10.1576 39.0878 9.34931 40.4639 9.34931C42.0141 9.34931 43.1812 10.2279 43.1812 11.739V11.9147H37.7117ZM21.3032 16.3428C20.4148 16.3428 19.8052 15.6399 19.8052 14.6032V9.87646H23.4631V6.53788H19.8139L19.7791 2.7073H15.7379L15.7727 15.4642C15.7727 18.0472 17.4798 19.8043 19.9881 19.8043C21.3119 19.8043 22.5661 19.6111 23.5589 19.1542V15.9035C22.8544 16.2351 22.0795 16.386 21.3032 16.3428ZM7.10687 6.32702C3.64053 6.32702 0 8.62889 0 13.2678C0 17.1335 2.57798 19.8395 5.8353 19.8395C7.69911 19.8395 9.11003 19.0839 10.0332 17.7485L10.1552 19.611H14.0657V13.4259C14.0657 8.71674 10.6255 6.32702 7.10687 6.32702ZM7.10687 16.2725C5.34757 16.2725 4.076 14.9546 4.076 13.092C4.076 11.2295 5.33015 9.9116 7.10687 9.9116C8.74424 9.9116 10.1029 11.3525 10.1029 13.092C10.1029 14.8316 8.74424 16.2725 7.10687 16.2725ZM107.892 4.76316C106.62 4.78073 105.802 5.60659 105.819 6.83659C105.837 8.0666 106.673 8.87488 107.944 8.85731C109.181 8.83974 110.017 8.01388 110 6.76631C109.982 5.51873 109.146 4.74559 107.892 4.76316ZM107.944 8.50588C106.951 8.52346 106.272 7.85574 106.272 6.83659C106.272 5.81745 106.917 5.13216 107.909 5.11459C108.902 5.09701 109.564 5.76473 109.582 6.80145C109.582 7.80302 108.92 8.48831 107.953 8.50588H107.944ZM88.1391 6.55545L85.3173 14.814L82.4606 6.55545H78.0711L83.3316 19.5935H87.2682L92.5287 6.55545H88.1391ZM98.6078 6.32702C94.8454 6.32702 91.9539 9.27903 91.9539 13.1975C91.9539 17.0808 94.8454 19.7868 98.8343 19.7868C101.081 19.7868 103.189 18.9785 104.478 17.3092L101.377 15.8859C100.75 16.4658 99.7923 16.6942 98.9388 16.6942C97.5453 16.6942 96.1518 15.9738 95.9602 14.4978H105.21C105.349 13.9703 105.419 13.4269 105.419 12.8812C105.419 8.85731 102.51 6.32702 98.6078 6.32702ZM101.43 11.9147H95.9602C96.0821 10.1576 97.3363 9.34931 98.7123 9.34931C100.263 9.34931 101.43 10.2279 101.43 11.739V11.9147ZM74.9531 0.827148C73.5248 0.827148 72.4448 1.79358 72.4448 3.14658C72.4448 4.49959 73.5248 5.50116 74.9531 5.50116C76.3814 5.50116 77.4614 4.51716 77.4614 3.14658C77.4614 1.77601 76.3989 0.827148 74.9531 0.827148ZM56.6111 6.30945C55.7944 6.29614 54.9882 6.49628 54.2709 6.89041C53.5536 7.28454 52.9496 7.85923 52.5177 8.5586L52.3783 6.55545H48.4765V19.5935H52.5177V12.7582C52.6048 11.124 53.9112 9.87646 55.3395 9.87646C56.9421 9.87646 57.6737 11.0889 57.6737 12.6176V19.5759H61.6974V11.985C61.6974 8.6816 59.7029 6.30945 56.6111 6.30945ZM68.9436 16.3428C68.0553 16.3428 67.4456 15.6399 67.4456 14.6032V9.87646H71.1036V6.53788H67.4456L67.4108 2.7073H63.3696L63.4044 15.4642C63.4044 18.0472 65.1115 19.8043 67.6198 19.8043C68.9436 19.8043 70.1978 19.6111 71.1906 19.1542V15.9035C70.4887 16.2337 69.717 16.3846 68.9436 16.3428ZM72.9151 6.55545V19.5935H76.9911V6.55545C76.3868 6.9594 75.678 7.17483 74.9531 7.17483C74.2282 7.17483 73.5194 6.9594 72.9151 6.55545Z" fill="#F5E2CA"/>
</svg>
