<svg width="96" height="42" viewBox="0 0 96 42" fill="none" xmlns="http://www.w3.org/2000/svg">
<g clip-path="url(#clip0_128_938)">
<path fill-rule="evenodd" clip-rule="evenodd" d="M94.5678 26.9005C90.6169 33.5991 84.3597 31.6554 82.4804 30.1335C81.6806 30.6762 80.2782 31.8656 78.4081 31.7283C74.4256 31.4359 72.9994 25.7447 72.9994 25.7447C73.028 25.7674 71.8131 26.1639 71.1565 26.1568C71.148 27.8258 69.7053 31.8128 65.8117 31.7618C61.4424 31.7048 60.5542 25.1954 60.5542 25.1954C60.5542 25.1954 60.1194 25.7992 58.4662 26.4005C58.5494 25.1183 58.4886 31.5666 53.2519 31.6614C49.1119 31.7364 47.9944 25.095 47.9944 25.095C47.9944 25.095 47.2762 25.8411 45.8844 26.0998C45.9728 24.7967 45.829 31.6833 40.5917 31.6614C37.0524 31.6467 35.8429 27.5703 35.937 27.0045C36.057 26.2835 34.7408 31.7627 31.3029 31.6774C29.8842 31.6357 28.8265 30.6085 28.1628 29.2391C27.2743 30.2557 25.9843 31.6774 24.5373 31.6774C21.9397 31.6774 20.7946 29.5048 20.9885 23.2995C21.005 22.5635 20.9519 22.274 20.2203 22.1639C19.7812 22.0906 19.3314 21.9519 18.8556 21.8788C18.7031 22.3877 17.4095 31.5118 12.9614 31.685C11.4692 31.7431 10.6532 30.4504 9.9831 29.491C8.95591 30.8499 7.59995 31.7283 5.66826 31.7283C2.39614 31.7283 0.166748 29.0831 0.166748 25.8201C0.166748 22.5569 2.39614 19.912 5.66826 19.912C6.24681 19.912 6.40922 19.9949 6.93775 20.1491C5.8508 10.2527 8.41775 8.70605 10.6633 8.70605C12.8191 8.70605 16.5021 13.7097 11.3198 26.4015C12.4704 30.1872 14.9508 29.9731 16.1427 22.1801C16.3853 20.596 15.7366 18.4584 16.7455 18.16C18.5898 17.6148 18.7855 19.2507 19.6503 19.5233C20.5647 19.8113 21.0983 19.7832 21.9761 19.9665C23.4761 20.2594 24.0614 21.0652 23.8787 22.8598C23.6592 25.1306 23.2753 28.4357 24.4458 28.8385C25.2899 29.1311 26.831 27.3806 27.1015 26.4228C27.3718 25.465 27.4283 25.1372 27.4523 24.4347C27.4889 22.9332 27.5348 21.8326 27.7908 20.6971C27.9004 20.2577 28.0253 19.9668 28.5225 19.9469C28.9315 19.9365 29.6795 19.8133 30.0088 20.0696C30.4477 20.3994 30.3929 20.734 30.3425 21.6147C29.8321 34.1713 33.7608 27.903 34.9322 22.8839C34.515 17.2084 34.8014 8.80997 38.3579 8.66912C40.2075 8.59586 41.0253 10.0776 41.1152 11.1836C41.3696 14.3074 39.9445 19.4819 38.0704 22.9617C36.9993 30.0621 42.7536 31.466 43.6738 25.7985C42.1683 25.0827 40.5412 22.1853 41.8652 20.7733C42.6082 19.9809 45.7008 21.1193 45.7514 23.6022C47.2684 23.1965 47.4709 22.34 47.4919 22.4819C47.0749 16.8065 47.4617 8.81005 51.0184 8.66919C52.8678 8.59594 53.6854 10.0777 53.7754 11.1837C54.0298 14.3075 52.6047 19.482 50.7308 22.9619C49.6596 30.0621 55.414 31.4662 56.334 25.7987C55.2193 25.5836 52.8663 22.5018 54.224 20.7734C54.9495 19.8498 58.0308 21.7706 58.3757 23.6844C59.833 23.272 60.0309 22.4427 60.0518 22.5823C59.6347 16.907 60.0215 8.91063 63.5782 8.76977C65.4276 8.69652 66.2452 10.1783 66.3352 11.2843C66.5896 14.4081 65.1645 19.5827 63.2903 23.0625C62.2193 30.1629 67.9737 31.5666 68.8939 25.8991C67.3621 25.644 65.1852 22.3901 66.9373 20.7255C67.6373 20.0604 70.3121 21.7869 70.9383 23.7566C71.8082 23.7231 72.3498 23.423 72.4658 23.3928C71.077 16.7302 72.1109 8.73602 75.937 8.66929C78.0049 8.63326 80.0266 9.78727 79.1393 16.1259C78.2922 22.1736 75.2474 24.7116 75.2545 24.7504C75.4316 25.475 76.994 31.5384 80.9285 28.3391C80.7248 27.878 80.5209 27.4068 80.4069 26.8361C79.7548 23.5114 81.0357 19.7561 84.5172 19.1491C86.5119 18.8014 88.3909 19.7725 88.688 21.9619C89.1767 25.5444 85.9418 28.1388 84.7117 28.7016C84.1607 28.3886 89.7061 31.9451 92.9971 24.8179C93.1879 24.4109 93.4179 24.4454 93.716 24.6551C93.9265 24.8033 95.1255 25.9391 94.5678 26.9005ZM8.04844 24.9398C7.88099 24.4392 7.53734 23.3361 7.41583 22.8581C6.74658 22.2761 6.26889 22.1816 5.40985 22.1816C3.5008 22.1816 2.37716 23.9466 2.37716 25.8499C2.37716 27.7531 3.60128 29.5184 5.51034 29.5184C7.16476 29.5184 8.42393 28.3935 8.80809 26.8011C8.5392 26.1803 8.27246 25.6098 8.04844 24.9398ZM10.6165 11.3257C9.27508 11.3257 8.82004 14.5256 8.90835 17.2555C8.98646 19.669 9.66087 21.7938 10.0107 22.7459C10.0995 22.8652 10.0831 22.7876 10.1623 22.9141C12.4915 17.8109 11.5254 11.3257 10.6165 11.3257ZM38.5495 11.4262C36.8158 11.2274 36.827 18.4496 37.0422 20.0696C37.9426 18.6291 39.5068 11.8141 38.5495 11.4262ZM51.2097 11.4262C49.4759 11.2274 49.4871 18.4496 49.7025 20.0696C50.6028 18.6291 52.1671 11.8141 51.2097 11.4262ZM63.7696 11.5267C62.0357 11.3279 62.0469 18.5501 62.2623 20.1702C63.1626 18.7296 64.7269 11.9145 63.7696 11.5267ZM76.1283 11.0034C73.4271 11.5459 74.0561 20.5521 74.4664 22.1317C77.6481 17.7615 77.7137 10.8393 76.1283 11.0034ZM86.2517 22.2582C86.1144 21.684 85.4277 21.3771 84.9537 21.4527C83.5974 21.6379 82.282 23.3271 82.7912 25.8988C82.9045 26.4716 83.1881 26.9988 83.1835 26.9812C86.2189 24.9449 86.4769 23.3402 86.2517 22.2582ZM29.0542 17.959C28.6665 17.9591 28.2876 17.8442 27.9652 17.6289C27.6429 17.4136 27.3916 17.1075 27.2432 16.7494C27.0948 16.3913 27.056 15.9972 27.1316 15.617C27.2071 15.2368 27.3939 14.8876 27.6679 14.6134C27.942 14.3393 28.2912 14.1526 28.6714 14.077C29.0515 14.0013 29.4457 14.0401 29.8038 14.1885C30.162 14.3368 30.468 14.5881 30.6834 14.9104C30.8987 15.2327 31.0137 15.6116 31.0137 15.9993C31.0137 16.2566 30.963 16.5115 30.8645 16.7492C30.7661 16.987 30.6218 17.203 30.4398 17.385C30.2578 17.567 30.0418 17.7113 29.8041 17.8098C29.5663 17.9083 29.3116 17.959 29.0542 17.959Z" fill="#F5E2CA"/>
</g>
<defs>
<clipPath id="clip0_128_938">
<rect width="95" height="40.7143" fill="white" transform="translate(0.166748 0.976074)"/>
</clipPath>
</defs>
</svg>
