<svg width="81" height="31" viewBox="0 0 81 31" fill="none" xmlns="http://www.w3.org/2000/svg">
<path d="M71.3711 4.54778C66.4284 4.54778 62.4064 8.59177 62.4064 13.5632C62.4064 18.5346 66.4284 22.5786 71.3711 22.5786C76.3125 22.5786 80.3334 18.5346 80.3334 13.5632C80.3334 8.59177 76.3125 4.54778 71.3711 4.54778ZM71.3711 18.3059C68.7716 18.3059 66.6545 16.176 66.6545 13.5632C66.6545 10.9492 68.7716 8.82044 71.3711 8.82044C73.9682 8.82044 76.0864 10.9492 76.0864 13.5632C76.0864 16.1772 73.9693 18.3059 71.3699 18.3059H71.3711ZM44.9734 11.7374L43.4058 10.9504C42.7253 10.6115 42.2986 10.3491 42.127 10.1553C41.9634 9.98352 41.8703 9.75648 41.8661 9.5192C41.8661 9.21509 42.0029 8.95857 42.2719 8.75892C42.5386 8.54999 42.9177 8.45481 43.3989 8.45481C44.2789 8.45481 45.254 8.98642 46.3276 10.0578L48.9734 7.39622C48.3233 6.50993 47.4731 5.79005 46.4922 5.2953C45.5242 4.8077 44.4547 4.55632 43.3711 4.56171C41.756 4.56171 40.4227 5.03877 39.3838 5.99986C38.3461 6.96095 37.8244 8.11588 37.8244 9.47045C37.8244 11.5714 39.1983 13.3218 41.9554 14.7112L43.3989 15.4366C44.6429 16.0669 45.2621 16.7088 45.2621 17.3727C45.2621 17.7325 45.0893 18.0436 44.7461 18.3199C44.4029 18.5973 43.9484 18.7285 43.385 18.7285C42.8632 18.7285 42.265 18.5485 41.5913 18.1829C40.9201 17.8232 40.323 17.3395 39.8313 16.7575L37.1995 19.6408C38.6835 21.5908 40.6627 22.5728 43.1508 22.5728C45.0209 22.5728 46.5131 22.0609 47.6192 21.0441C48.7322 20.0285 49.2887 18.7563 49.2887 17.2346C49.2887 16.0936 48.9803 15.0919 48.3682 14.2411C47.7502 13.3902 46.6163 12.5615 44.9734 11.7385V11.7374ZM18.3577 20.6146V4.90645H14.1027V5.95807C12.6689 5.03548 11.0001 4.54587 9.29569 4.54778C4.35424 4.54778 0.333374 8.59177 0.333374 13.5632C0.333374 18.5346 4.35424 22.5786 9.29685 22.5786C10.9808 22.5811 12.6307 22.1041 14.054 21.2031C14.054 21.3413 14.047 21.4655 14.047 21.549C14.047 24.1618 11.9299 26.2918 9.33164 26.2918C8.44818 26.2897 7.58327 26.0379 6.83656 25.5652L4.73221 29.2714C6.11982 30.1188 7.7132 30.5685 9.33859 30.5714C14.2812 30.5714 18.3577 26.5263 18.3577 21.5548C18.3577 21.3622 18.3705 20.7946 18.3577 20.6146ZM9.29685 18.3048C6.69975 18.3048 4.58149 16.176 4.58149 13.5632C4.58149 10.9492 6.69859 8.82044 9.29685 8.82044C11.8951 8.82044 14.0122 10.9492 14.0122 13.5632C14.0122 16.176 11.8951 18.3059 9.29685 18.3059V18.3048ZM35.3073 4.90065H31.0313V13.4715C31.0383 14.6891 31.0383 16.7912 30.1455 17.6896C29.7189 18.1179 29.2516 18.5056 28.2684 18.5056C27.2783 18.5056 26.8111 18.1179 26.3855 17.6896C25.4916 16.79 25.4986 14.6821 25.5044 13.4715V4.90065H21.2296V13.446C21.2157 15.2079 21.1948 18.4789 23.3398 20.6495C24.5977 21.9216 26.0969 22.5716 28.2615 22.5716C30.4273 22.5716 31.9253 21.9286 33.1832 20.6495C35.3282 18.4789 35.3073 15.201 35.2934 13.446L35.3073 4.89949V4.90065ZM59.538 17.5387C59.1948 17.801 58.3624 18.3826 57.4209 18.2514C56.6511 18.1469 56.0261 17.5805 55.9299 15.6862V8.57901H60.9548V4.88672H55.9299V0.0952148H51.6679V1.03541H51.6609V15.1267C51.6609 17.3669 52.2244 22.5716 57.414 22.5716C60.04 22.531 61.6342 21.0998 62.3021 20.5404L62.3913 20.4707L59.8337 17.3042C59.8267 17.31 59.6482 17.4551 59.538 17.5387Z" fill="#F5E2CA"/>
</svg>
