<svg width="70" height="30" viewBox="0 0 70 30" fill="none" xmlns="http://www.w3.org/2000/svg">
<path fill-rule="evenodd" clip-rule="evenodd" d="M70 15.4861C70 10.5083 67.5889 6.58052 62.9806 6.58052C58.3528 6.58052 55.5528 10.5083 55.5528 15.4472C55.5528 21.2999 58.8583 24.2555 63.6028 24.2555C65.9167 24.2555 67.6667 23.7305 68.9889 22.9916V19.1027C67.6667 19.7638 66.15 20.1722 64.225 20.1722C62.3389 20.1722 60.6667 19.5111 60.4528 17.2166H69.9611C69.9611 16.9638 70 15.9527 70 15.4861ZM60.3945 13.6388C60.3945 11.4416 61.7361 10.5277 62.9611 10.5277C64.1472 10.5277 65.4111 11.4416 65.4111 13.6388H60.3945Z" fill="#F5E2CA"/>
<path fill-rule="evenodd" clip-rule="evenodd" d="M48.0471 6.58051C46.1416 6.58051 44.9166 7.47496 44.236 8.09718L43.9832 6.89162H39.7055V29.5638L44.5666 28.5333L44.586 23.0305C45.286 23.536 46.3166 24.2555 48.0277 24.2555C51.5082 24.2555 54.6777 21.4555 54.6777 15.2916C54.6582 9.65273 51.4499 6.58051 48.0471 6.58051ZM46.8804 19.9777C45.7332 19.9777 45.0527 19.5694 44.586 19.0638L44.5666 11.8499C45.0721 11.2861 45.7721 10.8972 46.8804 10.8972C48.6499 10.8972 49.8749 12.8805 49.8749 15.4277C49.8749 18.0333 48.6693 19.9777 46.8804 19.9777Z" fill="#F5E2CA"/>
<path fill-rule="evenodd" clip-rule="evenodd" d="M33.0165 5.43325L37.897 4.38325V0.436035L33.0165 1.46659V5.43325Z" fill="#F5E2CA"/>
<path d="M37.897 6.91104H33.0165V23.9249H37.897V6.91104Z" fill="#F5E2CA"/>
<path fill-rule="evenodd" clip-rule="evenodd" d="M27.7857 8.34992L27.4746 6.91103H23.2746V23.9249H28.1357V12.3944C29.2829 10.8971 31.2274 11.1694 31.8302 11.3832V6.91103C31.2079 6.6777 28.9329 6.24992 27.7857 8.34992Z" fill="#F5E2CA"/>
<path fill-rule="evenodd" clip-rule="evenodd" d="M18.0637 2.69157L13.3192 3.70268L13.2998 19.2777C13.2998 22.1554 15.4581 24.2749 18.3359 24.2749C19.9303 24.2749 21.097 23.9832 21.7387 23.6332V19.686C21.1164 19.9388 18.0442 20.8332 18.0442 17.9554V11.0527H21.7387V6.91101H18.0442L18.0637 2.69157Z" fill="#F5E2CA"/>
<path fill-rule="evenodd" clip-rule="evenodd" d="M4.91944 11.85C4.91944 11.0916 5.54166 10.8 6.57221 10.8C8.04999 10.8 9.91665 11.2472 11.3944 12.0444V7.47497C9.78054 6.8333 8.1861 6.58052 6.57221 6.58052C2.625 6.58052 0 8.64163 0 12.0833C0 17.45 7.38888 16.5944 7.38888 18.9083C7.38888 19.8027 6.6111 20.0944 5.52221 20.0944C3.90833 20.0944 1.84722 19.4333 0.213888 18.5388V23.1666C2.02222 23.9444 3.84999 24.2749 5.52221 24.2749C9.56665 24.2749 12.3472 22.2722 12.3472 18.7916C12.3278 12.9972 4.91944 14.0277 4.91944 11.85Z" fill="#F5E2CA"/>
</svg>
